inDegrees=no
num_controls=7
num_derivatives=13
num_iterations=58
num_multipliers=7
num_parameters=0
num_slacks=7
num_states=26
objective=0.425845
objective_accelerations=0.061303
objective_balance=0.001361
objective_effort=0.015389
objective_height=0.341884
objective_ligament=0.005907
solver_duration=847.056777
status=Solve_Succeeded
success=true
DataType=double
version=3
OpenSimVersion=4.5
endheader
time	/jointset/ground_pelvis/pelvis_tilt/value	/jointset/ground_pelvis/pelvis_tx/value	/jointset/ground_pelvis/pelvis_ty/value	/jointset/hip_l/hip_flexion_l/value	/jointset/hip_l/hip_adduction_l/value	/jointset/hip_l/hip_rotation_l/value	/jointset/back/lumbar_extension/value	/jointset/patellofemoral_l/patellar_flexion_l/value	/jointset/knee_l/knee_flexion_l/value	/jointset/knee_l/knee_adduction_l/value	/jointset/knee_l/knee_rotation_l/value	/jointset/ankle_l/ankle_angle_l/value	/jointset/subtalar_l/subtalar_angle_l/value	/jointset/ground_pelvis/pelvis_tilt/speed	/jointset/ground_pelvis/pelvis_tx/speed	/jointset/ground_pelvis/pelvis_ty/speed	/jointset/hip_l/hip_flexion_l/speed	/jointset/hip_l/hip_adduction_l/speed	/jointset/hip_l/hip_rotation_l/speed	/jointset/back/lumbar_extension/speed	/jointset/patellofemoral_l/patellar_flexion_l/speed	/jointset/knee_l/knee_flexion_l/speed	/jointset/knee_l/knee_adduction_l/speed	/jointset/knee_l/knee_rotation_l/speed	/jointset/ankle_l/ankle_angle_l/speed	/jointset/subtalar_l/subtalar_angle_l/speed	/forceset/tau_hip_flexion_l	/forceset/tau_hip_adduction_l	/forceset/tau_hip_rotation_l	/forceset/tau_knee_flexion_l	/forceset/tau_ankle_angle_l	/forceset/tau_subtalar_angle_l	/forceset/tau_lumbar_extension	lambda_cid13_p0	lambda_cid13_p1	lambda_cid13_p2	lambda_cid13_p3	lambda_cid13_p4	lambda_cid13_p5	lambda_cid14_p0	/jointset/ground_pelvis/pelvis_tilt/accel	/jointset/ground_pelvis/pelvis_tx/accel	/jointset/ground_pelvis/pelvis_ty/accel	/jointset/hip_l/hip_flexion_l/accel	/jointset/hip_l/hip_adduction_l/accel	/jointset/hip_l/hip_rotation_l/accel	/jointset/back/lumbar_extension/accel	/jointset/patellofemoral_l/patellar_flexion_l/accel	/jointset/knee_l/knee_flexion_l/accel	/jointset/knee_l/knee_adduction_l/accel	/jointset/knee_l/knee_rotation_l/accel	/jointset/ankle_l/ankle_angle_l/accel	/jointset/subtalar_l/subtalar_angle_l/accel	gamma_cid13_p0	gamma_cid13_p1	gamma_cid13_p2	gamma_cid13_p3	gamma_cid13_p4	gamma_cid13_p5	gamma_cid14_p0
0.5	-0.2155013127443115	0.02532720906754953	0.7666108415594088	1.012539777544009	-0.3612015974060881	0.001340223266452055	-0.4000543337452359	0.9803328824812823	0.980332882481336	-0.02616476533271456	-0.1742503475496565	0.3136833215713817	0.1664616507748812	-0.7526515384151682	-0.1744168119336075	-0.5485021244997992	2.449137615028842	0.04590358070548212	0.538818760971436	-0.303294190032987	2.053228333831619	2.053228333831648	0.3323965584975991	0.001685056458167961	0.5269571716004013	0.2847311604439234	-0.09689185709518709	0.05581716784833919	-0.002530273585201911	-0.2160606881188452	0.03350066017593922	-0.005880315691899661	0.1119584170011598	-15.42191361725848	9.71096581359903	-6.920031977150509	-5.115883275995249	-438.0160637167198	-41.19088516466424	-4.197798866545264	0.2734722433393612	0.5024127668931937	-0.5021335818128004	-1.197678516872944	0.1166252662618056	-0.7570303812328618	1.38065316756371	-1.568126241551905	-1.568126241551917	-0.1602013041462704	0.06625187254676937	-0.7953022203002625	0.1561076481729281	-5.065039398677122e-07	4.735029056967972e-07	7.374474819612418e-06	5.188224606990758e-07	-1.4168124111692e-06	-5.928121406806502e-07	-8.545302816032807e-07
0.51	-0.2230122919173883	0.02360847395151279	0.7611021125030222	1.036966356041189	-0.3607395203621169	0.006698704639509152	-0.4030193040641042	1.000782937592219	1.000782937592487	-0.02286065743693834	-0.174229016619754	0.3189113859419222	0.1693119766400978	-0.7494555400641864	-0.1693070221922475	-0.5531131501971871	2.435847952340989	0.04649763602921769	0.5328934326193556	-0.2896987416531511	2.03647641262897	2.036476412629193	0.3283355933814231	0.002580979168327781	0.5185729472228108	0.2852663930561931	-0.1012166889567541	0.0566936826596149	-0.002931649298592413	-0.2193064505649614	0.03292384100189649	-0.005429310559828936	0.1152951265204881	-15.81291417457347	9.792423226528808	-7.171597475707868	-5.169750594909132	-441.476409722416	-41.31330829296963	-3.604514485729703	0.3559548002973285	0.5188535996144795	-0.4212847154441741	-1.444183099662804	0.02747430828870899	-0.5087004603201679	1.349160485877984	-1.774498979104802	-1.774498979075751	-0.5422957652765161	0.1026842628507093	-0.8723703592207721	-0.008929047039040981	-4.851319647682663e-07	7.873201976067993e-07	7.348642857995836e-06	5.53834841930804e-07	-1.344379053259595e-06	-1.677393532952936e-07	-8.405830288511985e-07
0.52	-0.2304886528731054	0.02194155503726026	0.755551133659313	1.061250123320494	-0.3602721670363375	0.01199824944942173	-0.4058482859366395	1.021056318707156	1.021056318707818	-0.01959980952196235	-0.1741984421043795	0.324053130506142	0.1721654228084786	-0.7457278949403574	-0.1640535715767645	-0.5569520819642333	2.420575371456297	0.04695883706733142	0.5270314483422669	-0.276096500765902	2.017893534646973	2.01789353464739	0.3237445622682938	0.003533773582509507	0.5096932103359303	0.2853552210767434	-0.1055415208183332	0.05757019747087651	-0.003333025009033065	-0.2225522130110432	0.03234702182783893	-0.004978305427837163	0.1186318360397989	-16.19875425002111	9.865242221268657	-7.412946813919883	-5.277989203767718	-444.8560281584367	-41.55376042192511	-3.062101772759652	0.3798015979083824	0.531144941718169	-0.3477147957444671	-1.594262156240707	0.09005440913747582	-0.7443615662346864	1.382011669046225	-1.934317597421524	-1.934317597421547	-0.2662145035370364	0.07762621335095304	-0.89440472215767	0.06682672982909532	-4.677774933427189e-07	7.191336530659553e-07	7.164118308507181e-06	5.296747381924674e-07	-1.250803440495744e-06	9.973182418830988e-08	-8.474355213218209e-07
0.53	-0.2379249196760577	0.02032769345429803	0.7499655836985157	1.085371726373749	-0.359800274445	0.01723476931754516	-0.4085410871555068	1.04113539970268	1.041135399703031	-0.01638270953652449	-0.1741605808380657	0.3291039178615975	0.1750184494919183	-0.7414140409407621	-0.1587145979575855	-0.560031187490693	2.403442417135062	0.04744867994395423	0.5198441291792765	-0.2624560991938293	1.997663242218324	1.997663242218541	0.3200463387541336	0.003853257071230853	0.5004023814795323	0.2852561153360876	-0.1105619492266297	0.05866015345359429	-0.003644656585842406	-0.2246619291829814	0.02995473798730759	-0.004660206809722418	0.1223696675353901	-17.19217750476164	10.05059578139578	-7.613336249066056	-4.787445262049306	-448.2532468588329	-41.51498365018293	-2.569321995325439	0.4738679937690431	0.5359990286080375	-0.2692403559040097	-1.818285519195378	0.0317017049627803	-0.770963358359728	1.356200972905877	-2.106128195411654	-2.106128195441694	-0.3659118822038938	-0.01728899752750843	-0.9556895875207261	-0.04833052441228661	-4.106898285366571e-07	5.15593673076001e-07	6.292452767413903e-06	4.479486504864381e-07	-1.087682325964444e-06	1.683119525629538e-07	-7.641284414311061e-07
